<svg xmlns="http://www.w3.org/2000/svg" xmlns:xlink="http://www.w3.org/1999/xlink" width="2000" zoomAndPan="magnify" viewBox="0 0 1500 1499.999933" height="2000" preserveAspectRatio="xMidYMid meet" version="1.0"><defs><filter x="0%" y="0%" width="100%" height="100%" id="20543e06af"><feColorMatrix values="0 0 0 0 1 0 0 0 0 1 0 0 0 0 1 0 0 0 1 0" color-interpolation-filters="sRGB"/></filter><g/><clipPath id="3544a15cf5"><path d="M 8.308594 344.726562 L 1485.808594 344.726562 L 1485.808594 1208.726562 L 8.308594 1208.726562 Z M 8.308594 344.726562 " clip-rule="nonzero"/></clipPath><clipPath id="ceee0c5eea"><path d="M 0.308594 0.726562 L 1477.808594 0.726562 L 1477.808594 864.726562 L 0.308594 864.726562 Z M 0.308594 0.726562 " clip-rule="nonzero"/></clipPath><clipPath id="878a06173f"><path d="M 393.308594 8.226562 L 1225.058594 8.226562 L 1225.058594 857.226562 L 393.308594 857.226562 Z M 393.308594 8.226562 " clip-rule="nonzero"/></clipPath><linearGradient x1="91.242986" gradientTransform="matrix(0.749811, 0, 0, 0.749918, 320.612534, 320.988594)" y1="709.350987" x2="1211.945029" gradientUnits="userSpaceOnUse" y2="-411.351012" id="3db654a2e6"><stop stop-opacity="1" stop-color="rgb(97.24884%, 67.83905%, 0%)" offset="0"/><stop stop-opacity="1" stop-color="rgb(97.24884%, 67.83905%, 0%)" offset="0.25"/><stop stop-opacity="1" stop-color="rgb(97.24884%, 67.83905%, 0%)" offset="0.375"/><stop stop-opacity="1" stop-color="rgb(97.24884%, 67.83905%, 0%)" offset="0.40625"/><stop stop-opacity="1" stop-color="rgb(97.24884%, 67.83905%, 0%)" offset="0.414062"/><stop stop-opacity="1" stop-color="rgb(96.97113%, 66.365051%, 0.614929%)" offset="0.417969"/><stop stop-opacity="1" stop-color="rgb(96.694946%, 64.892578%, 1.231384%)" offset="0.421875"/><stop stop-opacity="1" stop-color="rgb(96.270752%, 62.64801%, 2.1698%)" offset="0.425781"/><stop stop-opacity="1" stop-color="rgb(95.848083%, 60.403442%, 3.108215%)" offset="0.429688"/><stop stop-opacity="1" stop-color="rgb(95.425415%, 58.158875%, 4.046631%)" offset="0.433594"/><stop stop-opacity="1" stop-color="rgb(95.002747%, 55.914307%, 4.985046%)" offset="0.4375"/><stop stop-opacity="1" stop-color="rgb(94.580078%, 53.668213%, 5.923462%)" offset="0.441406"/><stop stop-opacity="1" stop-color="rgb(94.15741%, 51.423645%, 6.861877%)" offset="0.445312"/><stop stop-opacity="1" stop-color="rgb(93.734741%, 49.179077%, 7.800293%)" offset="0.449219"/><stop stop-opacity="1" stop-color="rgb(93.312073%, 46.934509%, 8.738708%)" offset="0.453125"/><stop stop-opacity="1" stop-color="rgb(92.889404%, 44.689941%, 9.677124%)" offset="0.457031"/><stop stop-opacity="1" stop-color="rgb(92.466736%, 42.445374%, 10.61554%)" offset="0.460938"/><stop stop-opacity="1" stop-color="rgb(92.044067%, 40.200806%, 11.553955%)" offset="0.464844"/><stop stop-opacity="1" stop-color="rgb(91.621399%, 37.956238%, 12.492371%)" offset="0.46875"/><stop stop-opacity="1" stop-color="rgb(91.19873%, 35.71167%, 13.430786%)" offset="0.472656"/><stop stop-opacity="1" stop-color="rgb(90.776062%, 33.467102%, 14.369202%)" offset="0.476562"/><stop stop-opacity="1" stop-color="rgb(90.353394%, 31.222534%, 15.307617%)" offset="0.480469"/><stop stop-opacity="1" stop-color="rgb(89.930725%, 28.977966%, 16.246033%)" offset="0.484375"/><stop stop-opacity="1" stop-color="rgb(89.508057%, 26.733398%, 17.184448%)" offset="0.488281"/><stop stop-opacity="1" stop-color="rgb(89.085388%, 24.488831%, 18.122864%)" offset="0.492188"/><stop stop-opacity="1" stop-color="rgb(88.661194%, 22.244263%, 19.061279%)" offset="0.496094"/><stop stop-opacity="1" stop-color="rgb(88.238525%, 19.999695%, 19.999695%)" offset="0.5"/><stop stop-opacity="1" stop-color="rgb(85.147095%, 21.746826%, 23.753357%)" offset="0.503906"/><stop stop-opacity="1" stop-color="rgb(82.055664%, 23.495483%, 27.507019%)" offset="0.507812"/><stop stop-opacity="1" stop-color="rgb(78.964233%, 25.242615%, 31.260681%)" offset="0.511719"/><stop stop-opacity="1" stop-color="rgb(75.872803%, 26.989746%, 35.014343%)" offset="0.515625"/><stop stop-opacity="1" stop-color="rgb(72.781372%, 28.736877%, 38.766479%)" offset="0.519531"/><stop stop-opacity="1" stop-color="rgb(69.689941%, 30.485535%, 42.520142%)" offset="0.523438"/><stop stop-opacity="1" stop-color="rgb(66.598511%, 32.232666%, 46.273804%)" offset="0.527344"/><stop stop-opacity="1" stop-color="rgb(63.50708%, 33.981323%, 50.027466%)" offset="0.53125"/><stop stop-opacity="1" stop-color="rgb(60.415649%, 35.728455%, 53.781128%)" offset="0.535156"/><stop stop-opacity="1" stop-color="rgb(57.324219%, 37.477112%, 57.53479%)" offset="0.539062"/><stop stop-opacity="1" stop-color="rgb(54.231262%, 39.224243%, 61.288452%)" offset="0.542969"/><stop stop-opacity="1" stop-color="rgb(51.139832%, 40.9729%, 65.042114%)" offset="0.546875"/><stop stop-opacity="1" stop-color="rgb(48.048401%, 42.720032%, 68.795776%)" offset="0.550781"/><stop stop-opacity="1" stop-color="rgb(44.95697%, 44.468689%, 72.549438%)" offset="0.554688"/><stop stop-opacity="1" stop-color="rgb(41.86554%, 46.21582%, 76.303101%)" offset="0.558594"/><stop stop-opacity="1" stop-color="rgb(38.774109%, 47.962952%, 80.056763%)" offset="0.5625"/><stop stop-opacity="1" stop-color="rgb(35.682678%, 49.710083%, 83.810425%)" offset="0.566406"/><stop stop-opacity="1" stop-color="rgb(32.591248%, 51.45874%, 87.564087%)" offset="0.570312"/><stop stop-opacity="1" stop-color="rgb(29.499817%, 53.205872%, 91.317749%)" offset="0.574219"/><stop stop-opacity="1" stop-color="rgb(26.408386%, 54.954529%, 95.071411%)" offset="0.578125"/><stop stop-opacity="1" stop-color="rgb(24.378967%, 56.10199%, 97.535706%)" offset="0.582031"/><stop stop-opacity="1" stop-color="rgb(22.349548%, 57.249451%, 100%)" offset="0.585938"/><stop stop-opacity="1" stop-color="rgb(22.349548%, 57.249451%, 100%)" offset="0.59375"/><stop stop-opacity="1" stop-color="rgb(22.349548%, 57.249451%, 100%)" offset="0.625"/><stop stop-opacity="1" stop-color="rgb(22.349548%, 57.249451%, 100%)" offset="0.75"/><stop stop-opacity="1" stop-color="rgb(22.349548%, 57.249451%, 100%)" offset="1"/></linearGradient><clipPath id="7af5ce20dc"><rect x="0" width="1478" y="0" height="865"/></clipPath><clipPath id="f8746128d1"><path d="M 0.308594 0.726562 L 1477.808594 0.726562 L 1477.808594 864.726562 L 0.308594 864.726562 Z M 0.308594 0.726562 " clip-rule="nonzero"/></clipPath><clipPath id="7270a4f0b0"><rect x="0" width="1478" y="0" height="865"/></clipPath><clipPath id="4d370210e8"><rect x="0" width="1478" y="0" height="865"/></clipPath><mask id="0ad6a75345"><g filter="url(#20543e06af)"><g transform="matrix(1, 0, 0, 1, 0, 0.000000000000113687)"><g clip-path="url(#4d370210e8)"><g clip-path="url(#f8746128d1)"><g transform="matrix(1, 0, 0, 1, 0, 0.000000000000113687)"><g clip-path="url(#7270a4f0b0)"><g fill="#000000" fill-opacity="1"><g transform="translate(713.571372, 491.976334)"><g><path d="M 194.097656 -15.375 L 122.351562 -86.480469 L 106.339844 -70.464844 L 178.085938 0.960938 Z M 127.15625 -20.820312 L 127.15625 -41.796875 L 69.34375 -41.796875 L 69.34375 -20.820312 Z M 114.824219 -94.328125 L 98.492188 -110.820312 L 3.203125 -15.535156 L 19.539062 0.960938 Z M 114.824219 -94.328125 "/></g></g></g></g></g></g></g></g></g></mask><clipPath id="2be0c90818"><path d="M 393.308594 8.226562 L 1225.058594 8.226562 L 1225.058594 857.226562 L 393.308594 857.226562 Z M 393.308594 8.226562 " clip-rule="nonzero"/></clipPath><clipPath id="95ed30d580"><rect x="0" width="1478" y="0" height="865"/></clipPath><clipPath id="ccf44f8238"><rect x="0" width="1478" y="0" height="865"/></clipPath><clipPath id="08eba9a4b1"><rect x="0" width="180" y="0" height="62"/></clipPath></defs><rect x="-150" width="1800" fill="#ffffff" y="-149.999993" height="1799.99992" fill-opacity="1"/><rect x="-150" width="1800" fill="#000000" y="-149.999993" height="1799.99992" fill-opacity="1"/><g fill="#ffffff" fill-opacity="1"><g transform="translate(331.149527, 835.976332)"><g><path d="M 37.472656 0 L 37.472656 -109.539062 L 14.414062 -109.539062 L 14.414062 0 Z M 37.472656 0 "/></g></g></g><g fill="#ffffff" fill-opacity="1"><g transform="translate(377.108321, 835.976332)"><g><path d="M 176.644531 0 L 176.644531 -109.539062 L 153.582031 -109.539062 L 153.582031 0 Z M 144.933594 -94.328125 L 128.757812 -110.5 L 102.816406 -84.558594 L 118.828125 -68.382812 Z M 111.300781 -60.535156 L 60.855469 -110.820312 L 44.839844 -94.488281 L 94.96875 -44.359375 Z M 37.472656 0 L 37.472656 -109.539062 L 14.414062 -109.539062 L 14.414062 0 Z M 37.472656 0 "/></g></g></g><g fill="#ffffff" fill-opacity="1"><g transform="translate(562.22584, 835.976332)"><g><path d="M 150.859375 -45 L 150.859375 -109.539062 L 127.796875 -109.539062 L 127.796875 -45 Z M 116.90625 -88.722656 L 116.90625 -109.539062 L 48.363281 -109.539062 L 48.363281 -88.722656 Z M 116.90625 -45 L 116.90625 -65.660156 L 48.363281 -65.660156 L 48.363281 -45 Z M 37.472656 0 L 37.472656 -109.539062 L 14.414062 -109.539062 L 14.414062 0 Z M 37.472656 0 "/></g></g></g><g fill="#ffffff" fill-opacity="1"><g transform="translate(912.938543, 835.976332)"><g><path d="M 127.796875 -88.722656 L 127.796875 -109.539062 L 48.363281 -109.539062 L 48.363281 -88.722656 Z M 127.796875 0 L 127.796875 -20.820312 L 48.363281 -20.820312 L 48.363281 0 Z M 37.472656 0 L 37.472656 -109.539062 L 14.414062 -109.539062 L 14.414062 0 Z M 37.472656 0 "/></g></g></g><g fill="#ffffff" fill-opacity="1"><g transform="translate(1049.214386, 835.976332)"><g><path d="M 116.425781 -88.722656 L 116.425781 -109.539062 L 3.203125 -109.539062 L 3.203125 -88.722656 Z M 71.265625 0 L 71.265625 -77.832031 L 48.203125 -77.832031 L 48.203125 0 Z M 71.265625 0 "/></g></g></g><g clip-path="url(#3544a15cf5)"><g transform="matrix(1, 0, 0, 1, 8, 344)"><g clip-path="url(#ccf44f8238)"><g clip-path="url(#ceee0c5eea)"><g mask="url(#0ad6a75345)"><g transform="matrix(1, 0, 0, 1, 0, 0.000000000000113687)"><g clip-path="url(#95ed30d580)"><g clip-path="url(#2be0c90818)"><path fill="url(#3db654a2e6)" d="M 393.308594 8.226562 L 393.308594 857.226562 L 1225.058594 857.226562 L 1225.058594 8.226562 Z M 393.308594 8.226562 " fill-rule="nonzero"/></g></g></g></g></g></g></g></g><g fill="#000000" fill-opacity="0"><g transform="translate(721.571372, 835.976332)"><g><path d="M 194.097656 -15.375 L 122.351562 -86.480469 L 106.339844 -70.464844 L 178.085938 0.960938 Z M 127.15625 -20.820312 L 127.15625 -41.796875 L 69.34375 -41.796875 L 69.34375 -20.820312 Z M 114.824219 -94.328125 L 98.492188 -110.820312 L 3.203125 -15.535156 L 19.539062 0.960938 Z M 114.824219 -94.328125 "/></g></g></g><g transform="matrix(1, 0, 0, 1, 653, 621)"><g clip-path="url(#08eba9a4b1)"><g fill="#ffffff" fill-opacity="1"><g transform="translate(2.223475, 49.481637)"><g><path d="M 1.734375 -29.234375 L 1.734375 -35.40625 L 30.8125 -35.40625 L 30.8125 -29.234375 L 19.96875 -29.234375 L 19.96875 0 L 12.5625 0 L 12.5625 -29.234375 Z M 1.734375 -29.234375 "/></g></g></g><g fill="#ffffff" fill-opacity="1"><g transform="translate(31.356126, 49.481637)"><g><path d="M 3.078125 0 L 3.078125 -35.40625 L 10.5625 -35.40625 L 10.5625 -20.796875 L 25.765625 -20.796875 L 25.765625 -35.40625 L 33.234375 -35.40625 L 33.234375 0 L 25.765625 0 L 25.765625 -14.625 L 10.5625 -14.625 L 10.5625 0 Z M 3.078125 0 "/></g></g></g><g fill="#ffffff" fill-opacity="1"><g transform="translate(64.275426, 49.481637)"><g><path d="M 3.078125 0 L 3.078125 -35.40625 L 26.9375 -35.40625 L 26.9375 -29.234375 L 10.5625 -29.234375 L 10.5625 -20.796875 L 25.703125 -20.796875 L 25.703125 -14.625 L 10.5625 -14.625 L 10.5625 -6.171875 L 27 -6.171875 L 27 0 Z M 3.078125 0 "/></g></g></g><g fill="#ffffff" fill-opacity="1"><g transform="translate(90.693422, 49.481637)"><g/></g></g><g fill="#ffffff" fill-opacity="1"><g transform="translate(98.575796, 49.481637)"><g><path d="M 3.078125 0 L 3.078125 -35.40625 L 17.25 -35.40625 C 21.15625 -35.40625 24.09375 -34.554688 26.0625 -32.859375 C 28.03125 -31.160156 29.015625 -28.984375 29.015625 -26.328125 C 29.015625 -24.242188 28.40625 -22.554688 27.1875 -21.265625 C 25.976562 -19.984375 24.453125 -19.132812 22.609375 -18.71875 L 22.609375 -18.375 C 23.960938 -18.320312 25.226562 -17.941406 26.40625 -17.234375 C 27.59375 -16.535156 28.550781 -15.554688 29.28125 -14.296875 C 30.019531 -13.035156 30.390625 -11.53125 30.390625 -9.78125 C 30.390625 -7.90625 29.925781 -6.226562 29 -4.75 C 28.070312 -3.28125 26.703125 -2.117188 24.890625 -1.265625 C 23.085938 -0.421875 20.859375 0 18.203125 0 Z M 10.5625 -6.125 L 16.671875 -6.125 C 18.765625 -6.125 20.285156 -6.523438 21.234375 -7.328125 C 22.191406 -8.140625 22.671875 -9.207031 22.671875 -10.53125 C 22.671875 -11.988281 22.144531 -13.1875 21.09375 -14.125 C 20.050781 -15.0625 18.632812 -15.53125 16.84375 -15.53125 L 10.5625 -15.53125 Z M 10.5625 -20.59375 L 16.109375 -20.59375 C 17.640625 -20.59375 18.910156 -20.992188 19.921875 -21.796875 C 20.941406 -22.597656 21.453125 -23.695312 21.453125 -25.09375 C 21.453125 -26.363281 21 -27.390625 20.09375 -28.171875 C 19.1875 -28.960938 17.90625 -29.359375 16.25 -29.359375 L 10.5625 -29.359375 Z M 10.5625 -20.59375 "/></g></g></g><g fill="#ffffff" fill-opacity="1"><g transform="translate(127.345317, 49.481637)"><g><path d="M 10.5625 -35.40625 L 10.5625 0 L 3.078125 0 L 3.078125 -35.40625 Z M 10.5625 -35.40625 "/></g></g></g><g fill="#ffffff" fill-opacity="1"><g transform="translate(137.596552, 49.481637)"><g><path d="M 26.5625 -23.96875 C 26.082031 -25.625 25.207031 -26.921875 23.9375 -27.859375 C 22.664062 -28.796875 21.066406 -29.265625 19.140625 -29.265625 C 16.429688 -29.265625 14.238281 -28.265625 12.5625 -26.265625 C 10.882812 -24.265625 10.046875 -21.421875 10.046875 -17.734375 C 10.046875 -14.035156 10.867188 -11.175781 12.515625 -9.15625 C 14.160156 -7.144531 16.390625 -6.140625 19.203125 -6.140625 C 21.691406 -6.140625 23.648438 -6.785156 25.078125 -8.078125 C 26.503906 -9.378906 27.238281 -11.125 27.28125 -13.3125 L 19.671875 -13.3125 L 19.671875 -18.953125 L 34.5 -18.953125 L 34.5 -14.484375 C 34.5 -11.390625 33.835938 -8.71875 32.515625 -6.46875 C 31.203125 -4.226562 29.394531 -2.507812 27.09375 -1.3125 C 24.800781 -0.113281 22.160156 0.484375 19.171875 0.484375 C 15.847656 0.484375 12.929688 -0.25 10.421875 -1.71875 C 7.910156 -3.1875 5.953125 -5.273438 4.546875 -7.984375 C 3.148438 -10.703125 2.453125 -13.929688 2.453125 -17.671875 C 2.453125 -21.492188 3.179688 -24.765625 4.640625 -27.484375 C 6.109375 -30.210938 8.09375 -32.296875 10.59375 -33.734375 C 13.09375 -35.171875 15.898438 -35.890625 19.015625 -35.890625 C 21.691406 -35.890625 24.113281 -35.378906 26.28125 -34.359375 C 28.445312 -33.347656 30.222656 -31.945312 31.609375 -30.15625 C 32.992188 -28.363281 33.847656 -26.300781 34.171875 -23.96875 Z M 26.5625 -23.96875 "/></g></g></g></g></g></svg>